<mxfile host="app.diagrams.net" modified="2023-12-13T07:08:03.371Z" agent="Mozilla/5.0 (Windows NT 10.0; Win64; x64) AppleWebKit/537.36 (KHTML, like Gecko) Chrome/120.0.0.0 Safari/537.36" etag="-sjzOje-0XRi430L68ZH" version="22.1.8" type="device">
  <diagram name="Страница — 1" id="xPb85ip9qLiAuMSUAd1n">
    <mxGraphModel dx="1036" dy="558" grid="1" gridSize="10" guides="1" tooltips="1" connect="1" arrows="1" fold="1" page="1" pageScale="1" pageWidth="827" pageHeight="1169" math="0" shadow="0">
      <root>
        <mxCell id="0" />
        <mxCell id="1" parent="0" />
        <mxCell id="Xpwy6s_EXCMvcourqSeb-1" value="&lt;font style=&quot;font-size: 16px;&quot;&gt;&lt;b style=&quot;text-decoration-line: underline;&quot;&gt;STAFF&lt;/b&gt;&lt;br&gt;&lt;br&gt;ID(pk)&lt;br&gt;Name&lt;br&gt;Surname&lt;br&gt;Position&lt;br&gt;Phone&lt;br&gt;?email&lt;br&gt;&lt;/font&gt;" style="rounded=0;whiteSpace=wrap;html=1;align=left;" parent="1" vertex="1">
          <mxGeometry x="20" y="240" width="140" height="160" as="geometry" />
        </mxCell>
        <mxCell id="Xpwy6s_EXCMvcourqSeb-2" value="&lt;font style=&quot;font-size: 16px;&quot;&gt;&lt;b style=&quot;text-decoration-line: underline;&quot;&gt;CLIENTS&lt;/b&gt;&lt;br&gt;&lt;br&gt;ID(pk)&lt;br&gt;Name&lt;br&gt;Surname&lt;br&gt;Phone&lt;br&gt;?email&lt;br&gt;password&lt;br&gt;&lt;/font&gt;" style="rounded=0;whiteSpace=wrap;html=1;align=left;" parent="1" vertex="1">
          <mxGeometry x="230" y="240" width="140" height="160" as="geometry" />
        </mxCell>
        <mxCell id="Xpwy6s_EXCMvcourqSeb-3" value="&lt;font style=&quot;font-size: 16px;&quot;&gt;&lt;b&gt;&lt;u&gt;SERVICES&lt;/u&gt;&lt;/b&gt;&lt;br&gt;&lt;br&gt;ID(pk)&lt;br&gt;Name&lt;br&gt;Describtion&lt;br&gt;Price&lt;br&gt;&lt;/font&gt;" style="rounded=0;whiteSpace=wrap;html=1;align=left;" parent="1" vertex="1">
          <mxGeometry x="440" y="245" width="120" height="130" as="geometry" />
        </mxCell>
        <mxCell id="Xpwy6s_EXCMvcourqSeb-5" value="&lt;font style=&quot;font-size: 16px;&quot;&gt;&lt;b&gt;&lt;u&gt;REGISTRATION&lt;/u&gt;&lt;/b&gt;&lt;br&gt;&lt;br&gt;ID(pk)&lt;br&gt;ClientID(fk)&lt;br&gt;ServiceID(fk)&lt;br&gt;EmployeeID(fk)&lt;br&gt;DateTime&lt;br&gt;Notes&lt;br&gt;&lt;/font&gt;" style="rounded=0;whiteSpace=wrap;html=1;align=left;" parent="1" vertex="1">
          <mxGeometry x="230" y="30" width="140" height="160" as="geometry" />
        </mxCell>
        <mxCell id="Xpwy6s_EXCMvcourqSeb-7" value="&lt;font style=&quot;font-size: 16px;&quot;&gt;&lt;b&gt;&lt;u&gt;REVIEWS&lt;/u&gt;&lt;/b&gt;&lt;br&gt;&lt;br&gt;ID(pk)&lt;br&gt;EmployeeID(fk)&lt;br&gt;Rating&lt;br&gt;Comment&lt;br&gt;&lt;/font&gt;" style="rounded=0;whiteSpace=wrap;html=1;align=left;" parent="1" vertex="1">
          <mxGeometry x="220" y="490" width="140" height="160" as="geometry" />
        </mxCell>
        <mxCell id="Zv4KJ_0L4otdsX_NIL4Z-2" value="" style="endArrow=classic;html=1;rounded=0;exitX=0.836;exitY=1.014;exitDx=0;exitDy=0;exitPerimeter=0;entryX=0.5;entryY=0;entryDx=0;entryDy=0;" parent="1" source="Xpwy6s_EXCMvcourqSeb-5" target="Xpwy6s_EXCMvcourqSeb-3" edge="1">
          <mxGeometry width="50" height="50" relative="1" as="geometry">
            <mxPoint x="340" y="360" as="sourcePoint" />
            <mxPoint x="500" y="240" as="targetPoint" />
          </mxGeometry>
        </mxCell>
        <mxCell id="Zv4KJ_0L4otdsX_NIL4Z-3" value="" style="endArrow=classic;html=1;rounded=0;exitX=0.5;exitY=1;exitDx=0;exitDy=0;entryX=0.5;entryY=0;entryDx=0;entryDy=0;" parent="1" source="Xpwy6s_EXCMvcourqSeb-5" target="Xpwy6s_EXCMvcourqSeb-2" edge="1">
          <mxGeometry width="50" height="50" relative="1" as="geometry">
            <mxPoint x="80" y="200" as="sourcePoint" />
            <mxPoint x="130" y="150" as="targetPoint" />
          </mxGeometry>
        </mxCell>
        <mxCell id="Zv4KJ_0L4otdsX_NIL4Z-4" value="" style="endArrow=classic;html=1;rounded=0;exitX=0.18;exitY=0.994;exitDx=0;exitDy=0;exitPerimeter=0;entryX=0.5;entryY=0;entryDx=0;entryDy=0;" parent="1" source="Xpwy6s_EXCMvcourqSeb-5" target="Xpwy6s_EXCMvcourqSeb-1" edge="1">
          <mxGeometry width="50" height="50" relative="1" as="geometry">
            <mxPoint x="30" y="180" as="sourcePoint" />
            <mxPoint x="80" y="130" as="targetPoint" />
          </mxGeometry>
        </mxCell>
        <mxCell id="Zv4KJ_0L4otdsX_NIL4Z-5" value="" style="endArrow=classic;html=1;rounded=0;entryX=0.5;entryY=1;entryDx=0;entryDy=0;exitX=0.424;exitY=-0.005;exitDx=0;exitDy=0;exitPerimeter=0;" parent="1" source="Xpwy6s_EXCMvcourqSeb-7" target="Xpwy6s_EXCMvcourqSeb-1" edge="1">
          <mxGeometry width="50" height="50" relative="1" as="geometry">
            <mxPoint x="130" y="530" as="sourcePoint" />
            <mxPoint x="160" y="480" as="targetPoint" />
          </mxGeometry>
        </mxCell>
        <mxCell id="wYEsVrnysv5VVN-hIRWN-1" value="&lt;font style=&quot;font-size: 16px;&quot;&gt;&lt;b style=&quot;text-decoration-line: underline;&quot;&gt;STAFF&lt;/b&gt;&lt;br&gt;&lt;br&gt;ID(pk)&lt;br&gt;Name&lt;br&gt;Surname&lt;br&gt;Position&lt;br&gt;Phone&lt;br&gt;?email&lt;br&gt;&lt;/font&gt;" style="rounded=0;whiteSpace=wrap;html=1;align=left;" parent="1" vertex="1">
          <mxGeometry x="930" y="410" width="140" height="160" as="geometry" />
        </mxCell>
        <mxCell id="wYEsVrnysv5VVN-hIRWN-2" value="&lt;font style=&quot;font-size: 16px;&quot;&gt;&lt;b style=&quot;text-decoration-line: underline;&quot;&gt;CLIENTS&lt;/b&gt;&lt;br&gt;&lt;br&gt;ID(pk)&lt;br&gt;Name&lt;br&gt;Surname&lt;br&gt;Phone&lt;br&gt;?email&lt;br&gt;password&lt;br&gt;&lt;/font&gt;" style="rounded=0;whiteSpace=wrap;html=1;align=left;" parent="1" vertex="1">
          <mxGeometry x="1140" y="410" width="140" height="160" as="geometry" />
        </mxCell>
        <mxCell id="wYEsVrnysv5VVN-hIRWN-3" value="&lt;font style=&quot;font-size: 16px;&quot;&gt;&lt;b&gt;&lt;u&gt;SERVICES&lt;/u&gt;&lt;/b&gt;&lt;br&gt;&lt;br&gt;ID(pk)&lt;br&gt;Name?(fk)&lt;br&gt;Describtion&lt;br&gt;Price&lt;br&gt;&lt;/font&gt;" style="rounded=0;whiteSpace=wrap;html=1;align=left;" parent="1" vertex="1">
          <mxGeometry x="690" y="440" width="120" height="130" as="geometry" />
        </mxCell>
        <mxCell id="wYEsVrnysv5VVN-hIRWN-4" value="&lt;font style=&quot;font-size: 16px;&quot;&gt;&lt;b&gt;&lt;u&gt;REGISTRATION&lt;/u&gt;&lt;/b&gt;&lt;br&gt;&lt;br&gt;ID(pk)&lt;br&gt;ClientID(fk)&lt;br&gt;ServiceID(fk)?&lt;br&gt;EmployeeID(fk)&lt;br&gt;DateTime&lt;br&gt;Notes&lt;br&gt;&lt;/font&gt;" style="rounded=0;whiteSpace=wrap;html=1;align=left;" parent="1" vertex="1">
          <mxGeometry x="1140" y="200" width="140" height="160" as="geometry" />
        </mxCell>
        <mxCell id="wYEsVrnysv5VVN-hIRWN-5" value="&lt;font style=&quot;font-size: 16px;&quot;&gt;&lt;b&gt;&lt;u&gt;REVIEWS&lt;/u&gt;&lt;/b&gt;&lt;br&gt;&lt;br&gt;ID(pk)&lt;br&gt;EmployeeID(fk)&lt;br&gt;Rating&lt;br&gt;Comment&lt;br&gt;&lt;/font&gt;" style="rounded=0;whiteSpace=wrap;html=1;align=left;" parent="1" vertex="1">
          <mxGeometry x="1130" y="660" width="140" height="160" as="geometry" />
        </mxCell>
        <mxCell id="wYEsVrnysv5VVN-hIRWN-6" value="" style="endArrow=classic;html=1;rounded=0;entryX=0.5;entryY=1;entryDx=0;entryDy=0;" parent="1" source="wYEsVrnysv5VVN-hIRWN-1" target="wYEsVrnysv5VVN-hIRWN-3" edge="1">
          <mxGeometry width="50" height="50" relative="1" as="geometry">
            <mxPoint x="1250" y="530" as="sourcePoint" />
            <mxPoint x="1410" y="410" as="targetPoint" />
            <Array as="points">
              <mxPoint x="870" y="600" />
            </Array>
          </mxGeometry>
        </mxCell>
        <mxCell id="wYEsVrnysv5VVN-hIRWN-7" value="" style="endArrow=classic;html=1;rounded=0;exitX=0.5;exitY=1;exitDx=0;exitDy=0;entryX=0.5;entryY=0;entryDx=0;entryDy=0;" parent="1" source="wYEsVrnysv5VVN-hIRWN-4" target="wYEsVrnysv5VVN-hIRWN-2" edge="1">
          <mxGeometry width="50" height="50" relative="1" as="geometry">
            <mxPoint x="990" y="370" as="sourcePoint" />
            <mxPoint x="1040" y="320" as="targetPoint" />
          </mxGeometry>
        </mxCell>
        <mxCell id="wYEsVrnysv5VVN-hIRWN-8" value="" style="endArrow=classic;html=1;rounded=0;exitX=0.18;exitY=0.994;exitDx=0;exitDy=0;exitPerimeter=0;entryX=0.5;entryY=0;entryDx=0;entryDy=0;" parent="1" source="wYEsVrnysv5VVN-hIRWN-4" target="wYEsVrnysv5VVN-hIRWN-1" edge="1">
          <mxGeometry width="50" height="50" relative="1" as="geometry">
            <mxPoint x="940" y="350" as="sourcePoint" />
            <mxPoint x="990" y="300" as="targetPoint" />
          </mxGeometry>
        </mxCell>
        <mxCell id="wYEsVrnysv5VVN-hIRWN-9" value="" style="endArrow=classic;html=1;rounded=0;entryX=0.5;entryY=1;entryDx=0;entryDy=0;exitX=0.424;exitY=-0.005;exitDx=0;exitDy=0;exitPerimeter=0;" parent="1" source="wYEsVrnysv5VVN-hIRWN-5" target="wYEsVrnysv5VVN-hIRWN-1" edge="1">
          <mxGeometry width="50" height="50" relative="1" as="geometry">
            <mxPoint x="1040" y="700" as="sourcePoint" />
            <mxPoint x="1070" y="650" as="targetPoint" />
          </mxGeometry>
        </mxCell>
      </root>
    </mxGraphModel>
  </diagram>
</mxfile>
